<svg xmlns="http://www.w3.org/2000/svg" width="18.657" height="22.28" viewBox="0 0 18.657 22.28">
  <defs>
    <style>
      .cls-1 {
        fill: #ed1d24;
        fill-rule: evenodd;
      }
    </style>
  </defs>
  <path id="Apple" class="cls-1" d="M917.827,6834.43a5.186,5.186,0,0,1-.937-3,4.572,4.572,0,0,1,.891-2.77,7.839,7.839,0,0,1,1.5-1.55,6.307,6.307,0,0,0-1.406-1.35,4.732,4.732,0,0,0-2.812-.89,8.909,8.909,0,0,0-2.344.46,5.942,5.942,0,0,1-1.922.47,8.6,8.6,0,0,1-1.828-.42,10.389,10.389,0,0,0-2.391-.37,4.54,4.54,0,0,0-3.8,1.92,8.137,8.137,0,0,0-1.5,5.01,13.415,13.415,0,0,0,1.969,6.71q1.921,3.465,4.032,3.46a5.474,5.474,0,0,0,1.781-.42,4.4,4.4,0,0,1,1.875-.47,5.654,5.654,0,0,1,2.015.43,5.74,5.74,0,0,0,1.875.46q1.688,0,3.469-2.62a14.229,14.229,0,0,0,1.641-3.37,3.966,3.966,0,0,1-2.11-1.69h0Zm-2.953-14.16v-0.14l-0.047-.14v-0.14a5.411,5.411,0,0,0-3.375,1.97,6.3,6.3,0,0,0-1.031,3.47,5.675,5.675,0,0,0,1.406-.24,4.425,4.425,0,0,0,1.454-.98,5.851,5.851,0,0,0,1.218-1.83,4.646,4.646,0,0,0,.375-1.83v-0.14Z" transform="translate(-901.281 -6819.84)"/>
</svg>
