<?xml version="1.0" standalone="no"?>
<!DOCTYPE svg PUBLIC "-//W3C//DTD SVG 20010904//EN"
 "http://www.w3.org/TR/2001/REC-SVG-20010904/DTD/svg10.dtd">
<svg version="1.0" xmlns="http://www.w3.org/2000/svg"
 width="22.000000pt" height="19.000000pt" viewBox="0 0 22.000000 19.000000"
 preserveAspectRatio="xMidYMid meet">

<g transform="translate(0.000000,19.000000) scale(0.100000,-0.100000)"
fill="#000000" stroke="none">
<path d="M195 135 l-7 -55 -59 0 c-64 0 -63 0 -74 63 -5 33 -9 37 -33 36 -22
-1 -23 -2 -5 -6 16 -3 23 -14 28 -46 4 -23 12 -48 17 -55 11 -13 105 -17 125
-4 12 8 31 122 20 122 -3 0 -9 -25 -12 -55z"/>
<path d="M72 24 c4 -21 22 -23 26 -1 2 10 -3 17 -13 17 -10 0 -15 -6 -13 -16z"/>
<path d="M150 26 c0 -8 4 -17 9 -20 11 -7 33 18 24 27 -12 12 -33 7 -33 -7z"/>
</g>
</svg>
