<svg xmlns="http://www.w3.org/2000/svg" width="18.84" height="22.25" viewBox="0 0 18.84 22.25">
  <defs>
    <style>
      .cls-1 {
        fill: #ed1d24;
        fill-rule: evenodd;
      }
    </style>
  </defs>
  <path id="Android" class="cls-1" d="M1167.52,6824.18a0.5,0.5,0,0,1-.15-0.38,0.482,0.482,0,0,1,.15-0.37,0.462,0.462,0,0,1,.37-0.14,0.573,0.573,0,0,1,.37.14,0.482,0.482,0,0,1,.15.37,0.5,0.5,0,0,1-.15.38,0.633,0.633,0,0,1-.37.14A0.5,0.5,0,0,1,1167.52,6824.18Zm5.62,0a0.538,0.538,0,0,1-.14-0.38,0.514,0.514,0,0,1,.14-0.37,0.573,0.573,0,0,1,.37-0.14,0.484,0.484,0,0,1,.38.14,0.514,0.514,0,0,1,.14.37,0.538,0.538,0,0,1-.14.38,0.522,0.522,0,0,1-.38.14,0.86,0.86,0,0,1-.37-0.14h0Zm-11.48,3a1.553,1.553,0,0,0-.38.98v5.77a1.306,1.306,0,0,0,.38.94,1.332,1.332,0,0,0,.98.42,1.349,1.349,0,0,0,.98-0.42,1.2,1.2,0,0,0,.38-0.94v-5.77a1.334,1.334,0,0,0-.38-0.98,1.454,1.454,0,0,0-1.96,0h0Zm2.9-.14v8.9a1.562,1.562,0,0,0,.42,1.08,1.427,1.427,0,0,0,1.03.42H1167l0.05,3.05a1.282,1.282,0,0,0,.37.94,1.365,1.365,0,0,0,1.97,0,1.282,1.282,0,0,0,.37-0.94v-3.05h1.88v3.05a1.282,1.282,0,0,0,.37.94,1.371,1.371,0,0,0,.99.42,1.349,1.349,0,0,0,.98-0.42,1.128,1.128,0,0,0,.43-0.94v-3.05h0.98a1.4,1.4,0,0,0,1.03-.42,1.674,1.674,0,0,0,.42-1.08v-8.9h-12.28Zm10.13-7.18c0.06-.15.04-0.24-0.05-0.28a0.229,0.229,0,0,0-.28.1l-0.99,1.78a6.645,6.645,0,0,0-5.34,0l-0.98-1.78a0.247,0.247,0,0,0-.29-0.1c-0.09.04-.11,0.13-0.04,0.28l0.94,1.74a6.356,6.356,0,0,0-2.3,2.06,5.32,5.32,0,0,0-.85,2.91h12.38a5.459,5.459,0,0,0-.84-2.91,5.971,5.971,0,0,0-2.3-2.06Zm5.06,7.32a1.467,1.467,0,0,0-1.97,0,1.327,1.327,0,0,0-.37.98v5.77a1.192,1.192,0,0,0,.37.94,1.365,1.365,0,0,0,1.97,0,1.3,1.3,0,0,0,.37-0.94v-5.77a1.539,1.539,0,0,0-.37-0.98h0Z" transform="translate(-1161.28 -6819.59)"/>
</svg>
